<svg width="20" height="20" viewBox="0 0 20 20" fill="none" xmlns="http://www.w3.org/2000/svg">
<path d="M5.00001 18.3333C4.55798 18.3333 4.13406 18.1577 3.8215 17.8451C3.50894 17.5326 3.33334 17.1087 3.33334 16.6666V3.3333C3.33334 2.89127 3.50894 2.46734 3.8215 2.15478C4.13406 1.84222 4.55798 1.66663 5.00001 1.66663H11.6667C11.9305 1.6662 12.1917 1.71796 12.4355 1.81894C12.6792 1.91991 12.9005 2.06809 13.0867 2.25496L16.0767 5.24496C16.264 5.43122 16.4127 5.65275 16.5139 5.89676C16.6152 6.14078 16.6671 6.40244 16.6667 6.66663V16.6666C16.6667 17.1087 16.4911 17.5326 16.1785 17.8451C15.866 18.1577 15.442 18.3333 15 18.3333H5.00001Z" stroke="#2C3E50" stroke-width="1.66667" stroke-linecap="round" stroke-linejoin="round"/>
<path d="M11.6667 1.66663V5.83329C11.6667 6.05431 11.7545 6.26627 11.9107 6.42255C12.067 6.57883 12.279 6.66663 12.5 6.66663H16.6667" stroke="#2C3E50" stroke-width="1.66667" stroke-linecap="round" stroke-linejoin="round"/>
<path d="M8.33332 7.5H6.66666" stroke="#2C3E50" stroke-width="1.66667" stroke-linecap="round" stroke-linejoin="round"/>
<path d="M13.3333 10.8334H6.66666" stroke="#2C3E50" stroke-width="1.66667" stroke-linecap="round" stroke-linejoin="round"/>
<path d="M13.3333 14.1666H6.66666" stroke="#2C3E50" stroke-width="1.66667" stroke-linecap="round" stroke-linejoin="round"/>
</svg>
